<svg width="70" height="20" fill="none" xmlns="http://www.w3.org/2000/svg"><path d="M9.224 10.384a3.46 3.46 0 0 1 1.656.744c.512.4.912.896 1.2 1.488.304.592.456 1.224.456 1.896 0 .848-.216 1.616-.648 2.304-.432.672-1.064 1.208-1.896 1.608-.816.384-1.784.576-2.904.576H.848V2.272h6c1.136 0 2.104.192 2.904.576.8.368 1.4.872 1.8 1.512.4.64.6 1.36.6 2.16 0 .992-.272 1.816-.816 2.472-.528.64-1.232 1.104-2.112 1.392Zm-6.192-.888h3.672c1.024 0 1.816-.24 2.376-.72.56-.48.84-1.144.84-1.992 0-.848-.28-1.512-.84-1.992-.56-.48-1.368-.72-2.424-.72H3.032v5.424ZM6.896 17.2c1.088 0 1.936-.256 2.544-.768.608-.512.912-1.224.912-2.136 0-.928-.32-1.656-.96-2.184-.64-.544-1.496-.816-2.568-.816H3.032V17.2h3.864Zm10.855-9.216a4.212 4.212 0 0 1 1.632-1.752c.72-.416 1.592-.624 2.616-.624v2.256h-.576c-2.448 0-3.672 1.328-3.672 3.984V19h-2.184V5.848h2.184v2.136Zm7.897-4.272c-.416 0-.768-.144-1.056-.432a1.436 1.436 0 0 1-.432-1.056c0-.416.144-.768.432-1.056.288-.288.64-.432 1.056-.432.4 0 .736.144 1.008.432.288.288.432.64.432 1.056 0 .416-.144.768-.432 1.056a1.331 1.331 0 0 1-1.008.432Zm1.056 2.136V19H24.52V5.848h2.184Zm6.386 1.8V15.4c0 .64.136 1.096.408 1.368.272.256.744.384 1.416.384h1.608V19h-1.968c-1.216 0-2.128-.28-2.736-.84-.608-.56-.912-1.48-.912-2.76V7.648h-1.704v-1.8h1.704V2.536h2.184v3.312h3.432v1.8H33.09Z" fill="#000"/><path d="M41.352 1.24V19h-2.184V1.24h2.184Zm15.723 10.68c0 .416-.024.856-.072 1.32H46.49c.08 1.296.52 2.312 1.32 3.048.816.72 1.8 1.08 2.952 1.08.944 0 1.728-.216 2.352-.648a3.535 3.535 0 0 0 1.344-1.776h2.352a5.712 5.712 0 0 1-2.112 3.096c-1.056.784-2.368 1.176-3.936 1.176-1.248 0-2.368-.28-3.36-.84-.976-.56-1.744-1.352-2.304-2.376-.56-1.04-.84-2.24-.84-3.6 0-1.36.272-2.552.816-3.576.544-1.024 1.304-1.808 2.28-2.352.992-.56 2.128-.84 3.408-.84 1.248 0 2.352.272 3.312.816a5.55 5.55 0 0 1 2.208 2.256c.528.944.792 2.016.792 3.216Zm-2.256-.456c0-.832-.184-1.544-.552-2.136a3.474 3.474 0 0 0-1.512-1.368c-.624-.32-1.32-.48-2.088-.48-1.104 0-2.048.352-2.832 1.056-.768.704-1.208 1.68-1.32 2.928h8.304ZM66.82 19l-3.12-4.896-3 4.896h-2.28l4.248-6.528-4.248-6.624h2.472l3.12 4.872 2.976-4.872h2.28l-4.224 6.504L69.293 19h-2.472Z" fill="#939393"/></svg>